<svg width="114" height="62" viewBox="0 0 114 62" fill="none" xmlns="http://www.w3.org/2000/svg">
<path d="M11.232 47V18.056H1.344V13.4H26.832V18.056H16.944V47H11.232ZM31.6279 47V22.808H37.3879V47H31.6279ZM34.5079 18.968C33.4519 18.968 32.5719 18.648 31.8679 18.008C31.1959 17.336 30.8599 16.52 30.8599 15.56C30.8599 14.568 31.1959 13.768 31.8679 13.16C32.5719 12.52 33.4519 12.2 34.5079 12.2C35.5639 12.2 36.4279 12.52 37.0999 13.16C37.8039 13.768 38.1559 14.568 38.1559 15.56C38.1559 16.52 37.8039 17.336 37.0999 18.008C36.4279 18.648 35.5639 18.968 34.5079 18.968ZM44.0441 47V22.808H49.1321L49.6121 26.12C50.3801 24.904 51.3881 23.96 52.6361 23.288C53.9161 22.584 55.3721 22.232 57.0041 22.232C58.2201 22.232 59.3081 22.392 60.2681 22.712C61.2601 23.032 62.1241 23.512 62.8601 24.152C63.6281 24.792 64.2521 25.592 64.7321 26.552C65.6281 25.208 66.7961 24.152 68.2361 23.384C69.6761 22.616 71.2441 22.232 72.9401 22.232C74.9561 22.232 76.6681 22.648 78.0761 23.48C79.4841 24.28 80.5561 25.48 81.2921 27.08C82.0281 28.648 82.3961 30.584 82.3961 32.888V47H76.6841V33.464C76.6841 31.416 76.2681 29.848 75.4361 28.76C74.6041 27.672 73.3721 27.128 71.7401 27.128C70.6201 27.128 69.6281 27.4 68.7641 27.944C67.9321 28.488 67.2761 29.288 66.7961 30.344C66.3161 31.368 66.0761 32.632 66.0761 34.136V47H60.3641V33.464C60.3641 31.416 59.9481 29.848 59.1161 28.76C58.2841 27.672 57.0361 27.128 55.3721 27.128C54.3161 27.128 53.3561 27.4 52.4921 27.944C51.6601 28.488 51.0041 29.288 50.5241 30.344C50.0441 31.368 49.8041 32.632 49.8041 34.136V47H44.0441Z" fill="white"/>
<circle cx="100" cy="34" r="13" stroke="#FED902" stroke-width="2"/>
<circle cx="100" cy="34" r="7" stroke="#FED902" stroke-width="2"/>
</svg>
